**ABCDEFGHIJKLMNOPQRSTUVWXYZabcdefghijklmnopqrstuvwxyz**************************
**PARASOLID !"#$%&'()*+,-./:;<=>?@[\]^_`{|}~0123456789**************************
**PART1;
MC=AMD64;
MC_MODEL=AMD64 Family 23 Model 113 Stepping 0, AuthenticAMD;
MC_ID=unknown;
OS=Windows_NT;
OS_RELEASE=unknown;
FRU=Parasolid Version 31.1, build 290,  3- 9-2020;
APPL=SOLIDWORKS 2020-2020128;
SITE=;
USER=unknown;
FORMAT=text;
GUISE=transmit;
KEY=Domain_Surface;
FILE=Domain_Surface.x_t;
DATE=Fri Feb 26 16:01:16 2021;
**PART2;
SCH=SCH_3101290_31100;
USFLD_SIZE=0;
**PART3;
**END_OF_HEADER*****************************************************************
T51 : TRANSMIT FILE created by modeller version 310129023 SCH_3101290_31100_1300
6222 0 10 20 CCCCCCCI4 mesh1006 0 I8 polyline1008 0 CCCCCCCCCCA16 mesh_offset_da
ta206 0 Z1 5 2 3 0 0 0 0 0 0 0 1e3 1e-8 0 0 0 1 0 1 4 0 81 255 2 2 5 5 1 0 0 0 0
 0 0 70 11 CI9 list_type0 0 1 uI10 notransmit0 0 1 lCCCDCCDI12 finger_index0 0 1
 dI12 finger_block1012 0 CZ3 0 4 T1 0 0 1 20 1 6 6 11 255 4 3 0 1 7 8 1 9 0 0 0
 12 34 CCCCCCI4 mesh1006 0 I8 polyline1008 0 CCCCCCCDI5 owner1040 0 CCCCCCI13 bo
undary_mesh1006 0 I17 boundary_polyline1008 0 CCCA16 index_map_offset0 0 1 dA9 i
ndex_map82 0 A17 node_id_index_map82 0 A20 schema_embedding_map82 0 A5 child12 0
 A14 lowest_node_id0 0 1 dA16 mesh_offset_data206 0 Z7 14 10 11 0 0 0 0 0 0 1e3
 1e-8 4 12 0 1 0 2 1 13 0 14 15 0 0 16 0 17 0 0 0 0 0 0 0 100 255 8 4 4 0 0 1 0
 0 0 1 0 0 0 1 0 0 0 1 0 ?11 9 1 0 1 12 18 1 0 4 0 0 12 12 111 19 20 0 0 0 0 0 0
 1e3 1e-8 9 21 7 1 0 3 1 22 23 24 25 0 0 26 27 28 0 0 0 0 0 0 0 100 18 2 9 0 0 1
 0 0 0 1 0 0 0 1 0 0 0 1 0 ?81 1 19 111 29 12 30 0 0 0 0 70 20 0 4 T12 0 0 4 20
 1 31 31 13 255 22 63 0 12 0 32 0 0 26 32 50 255 23 3 0 32 0 0 0 +.3418932293115
765 .238864593796741 0 0 0 1 1 0 0 30 255 24 36 0 27 33 0 0 +.7054942024 .271924
0171 0 0 -1 0 29 255 25 61 0 28 34 0 .7054942024 .2719240171 0 19 8 CCCCCCCA5 ow
ner12 0 Z26 62 0 12 0 0 22 V0 16 255 27 34 0 ?35 0 36 24 0 0 12 18 255 28 59 0 3
7 0 38 25 ?12 17 255 37 0 0 0 0 28 39 40 0 35 -18 38 56 0 41 28 42 34 ?12 17 41
 0 43 35 44 38 45 36 0 46 +18 42 53 0 44 38 47 48 ?12 29 34 58 0 38 48 25 .70549
42024 .75 0 29 48 55 0 42 49 34 5 .75 0 29 49 52 0 47 50 48 5 -.75 0 18 47 50 0
 51 42 52 49 ?12 29 50 49 0 52 53 49 .7054942024 -.75 0 18 52 47 0 54 47 55 50 ?
12 29 53 46 0 55 56 50 .7054942024 -.2719240171 0 18 55 44 0 57 52 58 53 ?12 29
 56 43 0 58 59 53 0 -.1156244578 0 18 58 41 0 60 55 61 56 ?12 29 59 40 0 61 0 56
 0 .1156244578 0 18 61 38 0 39 58 0 59 ?12 17 39 0 43 60 35 61 37 40 0 62 +15 25
5 43 4 0 39 32 0 17 60 0 43 57 39 58 62 63 0 64 +17 35 0 43 39 41 28 46 27 0 0 +
16 40 5 0 ?39 63 0 65 0 0 12 17 62 0 0 0 0 61 60 63 0 0 -16 63 10 0 ?60 66 40 67
 0 0 12 16 66 14 0 ?57 68 63 69 0 0 12 30 67 12 0 63 65 69 0 +0 -.1156244578 0 0
 -1 0 134 255 65 7 0 40 0 67 0 +70 71 134 69 16 0 66 67 72 0 +73 74 30 72 20 0 6
8 69 75 0 +.705494202400675 -.271924017100012 0 -1411245400725032e-27 -1 0 136 2
55 73 3 58 3 56 6 FFF1 76 77 78 135 255 74 2 0 45 255 174 76 0 -.1156244578 0 .0
0166006835764445 -.1166568035764556 0 .00471008764745884 -.1185535173578182 0 .0
0920076294579357 -.1212895712993354 0 .01349028041603134 -.123861779112816 0 .01
787948835827445 -.1264494671523816 0 .02237190015530115 -.129053222307729 0 .028
56623677582265 -.1325814460575868 0 .0365978886783795 -.137034852381352 0 .04662
35905318425 -.142393463949971 0 .0571678437927568 -.1478184146652324 0 .06827187
16637087 -.1533093506160875 0 .0799806196369031 -.1588652133810575 0 .0901573631
655193 -.1634906541475365 0 .0986383556215923 -.167219487128519 0 .1052582992618
726 -.170063914249849 0 .112069360579106 -.172922390366179 0 .119079389146331 -.
17579431122202 0 .1262966106281458 -.178678987599099 0 .133729648817907 -.181575
638800749 0 .1413875491023316 -.1844833852456325 0 .1492798032007468 -.187401242
0378645 0 .157416376644732 -.1903281090818065 0 .1658077371984915 -.193262763830
769 0 .1744648860660305 -.196203850836 0 .183399391030147 -.199149871921946 0 .1
926234225155535 -.202099174001433 0 .20214979158755 -.205049938665159 0 .2119919
921958325 -.2080001668810285 0 .2221642453526165 -.210947666606663 0 .2326815477
661815 -.21389003597273 0 .243559723986151 -.2168246468013755 0 .25481548280591
 -.2197486263341275 0 .266466478587441 -.222658836645824 0 .2785313772915515 -.2
25551853268266 0 .291029928340384 -.2284239413405525 0 .303983043003029 -.231271
028555565 0 .317412878911619 -.2340886775572525 0 .3313429325555365 -.2368720537
4325 0 .345798139684188 -.2396158917354565 0 .3608049854285555 -.242314456322432
5 0 .376391623789464 -.2449615024671275 0 .392588009002932 -.2475502277673735 0
 .409426038598138 -.250073223692778 0 .4269397110460645 -.252522418067471 0 .445
165297998145 -.254889015481137 0 .464141534199645 -.257163427212915 0 .483909825
987861 -.2593351975263645 0 .50451448141757 -.2613929169361685 0 .52600296385956
1 -.263324137925088 0 .548426173142643 -.26511523516474 0 .571838753689793 -.266
7514362057765 0 .596299447628485 -.2682161071225665 0 .621871442037381 -.2694929
395662795 0 .648622932809361 -.270556491040597 0 .676627044597815 -.271409127938
2815 0 .695724806799314 -.271749765240991 0 .7054942024 -.2719240171 0 127 255 5
6 77 4 1 1 1 1 1 1 1 1 1 1 1 1 1 1 1 1 1 1 1 1 1 1 1 1 1 1 1 1 1 1 1 1 1 1 1 1 1
 1 1 1 1 1 1 1 1 1 1 1 1 1 1 1 1 1 4 128 255 56 78 0 .00802198198734566 .0147386
7006215666 .02157855292631905 .0285463896487572 .03564712771608775 .042885912913
929 .0577992632578889 .073331988354468 .0895335498730987 .1064577616780004 .1241
632849533044 .142714188313917 .1523283126029725 .1621805845745555 .1722808315912
38 .1826393545701515 .1932669568205125 .2041749744134355 .2153753091586025 .2268
80463109578 .2387035768000085 .250858469444605 .263359682727226 .276222527166088
 .2894631327953375 .303098503439992 .3171465752117035 .331626280163559 .34655761
44853595 .3619617119877195 .377860925208562 .394278911622066 .411240727701088 .4
287729316707885 .4469036943958885 .465662920818235 .48508238135953 .505195855644
432 .52603928993969 .547650968973249 .570071702901851 .593345033858531 .61751746
1499568 .642638691129378 .668761906632713 .695944070941937 .724246257509821 .753
734016742205 .784477780503087 .816553311982316 .850042202277966 .885032424982881
 .921618951987711 .959904440240213 1 16 68 18 0 ?54 79 66 72 0 0 12 30 75 24 0 7
9 72 80 0 +.7054942024 -.75 0 1 0 0 16 79 22 0 ?51 81 68 75 0 0 12 30 80 28 0 81
 75 33 0 +5 .75 0 0 1 0 16 81 26 0 ?44 36 79 80 0 0 12 30 33 32 0 36 80 24 0 +.7
054942024 .75 0 -1 0 0 16 36 30 0 ?41 27 81 33 0 0 12 17 44 0 43 41 51 42 82 81
 0 45 +17 51 0 43 44 54 47 83 79 0 82 +17 82 0 0 0 0 47 44 81 0 0 -17 45 0 0 0 0
 42 41 36 0 0 -17 54 0 43 51 57 52 84 68 0 83 +17 83 0 0 0 0 52 51 79 0 0 -17 57
 0 43 54 60 55 64 66 0 84 +17 84 0 0 0 0 55 54 68 0 0 -17 64 0 0 0 0 58 57 66 0
 0 -136 70 3 58 3 56 6 FFF1 85 86 87 135 71 2 0 45 174 85 .7054942024 .271924017
1 0 .695724806799314 .271749765240991 0 .676627044597815 .2714091279382815 0 .64
8622932809361 .270556491040597 0 .621871442037381 .2694929395662795 0 .596299447
628485 .2682161071225665 0 .571838753689793 .2667514362057765 0 .548426173142643
 .26511523516474 0 .526002963859561 .263324137925088 0 .50451448141757 .26139291
69361685 0 .483909825987861 .2593351975263645 0 .464141534199645 .25716342721291
5 0 .445165297998145 .254889015481137 0 .4269397110460645 .252522418067471 0 .40
9426038598138 .250073223692778 0 .392588009002932 .2475502277673735 0 .376391623
789464 .2449615024671275 0 .3608049854285555 .2423144563224325 0 .34579813968418
8 .2396158917354565 0 .3313429325555365 .23687205374325 0 .317412878911619 .2340
886775572525 0 .303983043003029 .231271028555565 0 .291029928340384 .22842394134
05525 0 .2785313772915515 .225551853268266 0 .266466478587441 .222658836645824 0
 .25481548280591 .2197486263341275 0 .243559723986151 .2168246468013755 0 .23268
15477661815 .21389003597273 0 .2221642453526165 .210947666606663 0 .211991992195
8325 .2080001668810285 0 .20214979158755 .205049938665159 0 .1926234225155535 .2
02099174001433 0 .183399391030147 .199149871921946 0 .1744648860660305 .19620385
0836 0 .1658077371984915 .193262763830769 0 .157416376644732 .1903281090818065 0
 .1492798032007468 .1874012420378645 0 .1413875491023316 .1844833852456325 0 .13
3729648817907 .181575638800749 0 .1262966106281458 .178678987599099 0 .119079389
146331 .17579431122202 0 .112069360579106 .172922390366179 0 .1052582992618726 .
170063914249849 0 .0986383556215923 .167219487128519 0 .0901573631655193 .163490
6541475365 0 .0799806196369031 .1588652133810575 0 .0682718716637087 .1533093506
160875 0 .0571678437927568 .1478184146652324 0 .0466235905318425 .14239346394997
1 0 .0365978886783795 .137034852381352 0 .02856623677582265 .1325814460575868 0
 .02237190015530115 .129053222307729 0 .01787948835827445 .1264494671523816 0 .0
1349028041603134 .123861779112816 0 .00920076294579357 .1212895712993354 0 .0047
1008764745884 .1185535173578182 0 .00166006835764445 .1166568035764556 0 0 .1156
244578 0 127 56 86 4 1 1 1 1 1 1 1 1 1 1 1 1 1 1 1 1 1 1 1 1 1 1 1 1 1 1 1 1 1 1
 1 1 1 1 1 1 1 1 1 1 1 1 1 1 1 1 1 1 1 1 1 1 1 1 4 128 56 87 0 .0400955597597874
 .0783810480122894 .1149675750171188 .149957797722034 .1834466880176845 .2155222
19496913 .2462659832577955 .275753742490179 .304055929058063 .3312380933672875 .
3573613088706225 .3824825385004315 .4066549661414685 .429928297098149 .452349031
026751 .47396071006031 .494804144355568 .51491761864047 .534337079181765 .553096
305604111 .571227068329211 .588759272298912 .605721088377934 .622139074791438 .6
38038288012281 .653442385514641 .668373719836441 .682853424788297 .6969014965600
08 .710536867204663 .723777472833912 .736640317272774 .749141530555395 .76129642
3199992 .773119536890422 .784624690841397 .795825025586565 .806733043179487 .817
360645429848 .827719168408762 .837819415425445 .847671687397027 .857285811686083
 .875836715046696 .893542238322 .910466450126901 .926668011645532 .9422007367421
11 .957114087086071 .964352872283912 .971453610351243 .978421447073681 .98526132
9937843 .991978018012654 1 17 46 0 0 0 0 38 35 27 0 0 -14 255 32 1 88 ?0 0 43 22
 23 +0 0 0 0 22 81 1 88 110 89 32 90 0 0 0 91 80 255 1 89 92 93 9000 1 1 1 1 1 1
 1 1 0 FFFFTFTFFFFFFF1 81 1 90 97 94 32 0 88 0 0 95 82 255 1 91 -602931095 80 1
 94 0 96 8001 0 0 0 0 3 5 0 0 0 FFFFTFTFFFFFFF2 83 255 3 95 .792156862745098 .81
9607843137255 .933333333333333 79 255 15 96 SDL/TYSA_COLOUR79 14 93 SWEntUnchang
ed74 4 CI16 index_map_offset0 0 1 dCCZ20 31 4 0 0 30 90 88 19 0 0 0 0 0 0 0 0 0
 0 0 0 0 0 0 0 81 2 30 84 97 12 0 19 0 0 98 0 80 2 97 99 100 8004 0 0 0 0 3 5 0
 0 0 FFTFFFFFFFFFFF2 3 83 1 98 1 79 16 100 SDL/TYSA_DENSITY80 1 29 101 102 8017
 0 0 0 0 0 0 0 0 0 TTTTTTTTTTTTTF3 79 13 102 SDL/TYSA_NAME81 1 10 14 29 7 0 0 0
 0 0 70 11 0 4 T7 0 0 1 20 1 103 103 13 13 3 0 7 0 0 104 0 16 0 134 14 7 0 104 0
 0 0 +105 106 29 15 8 0 17 107 0 .7054942024 .2719240171 0 19 16 1 0 7 0 0 13 V0
 18 17 5 0 108 0 109 15 ?7 17 108 0 0 0 0 17 110 104 0 0 +18 109 2 0 110 17 0 10
7 ?7 17 110 0 0 0 0 109 108 104 0 0 -29 107 4 0 109 0 15 0 .1156244578 0 16 104
 6 0 ?108 0 0 14 0 0 13 136 105 3 64 3 62 6 FFF1 111 112 113 135 106 2 0 45 192
 111 0 .1156244578 0 .00166006835764445 .1166568035764556 0 .00471008764745884 .
1185535173578182 0 .00920076294579357 .1212895712993354 0 .01349028041603134 .12
3861779112816 0 .01787948835827445 .1264494671523816 0 .02237190015530115 .12905
3222307729 0 .026971502475502 .131673103521848 0 .03168235707138655 .13430928216
12422 0 .03650872089880855 .1369618629806128 0 .04145502409967575 .1396309305370
33 0 .0465258873197354 .142316534113385 0 .0517261297136446 .1450186879274944 0
 .0570607790564109 .1477373688624652 0 .0625350836877859 .1504725118172625 0 .06
81545228461295 .1532240089246855 0 .0739248202703215 .155991703969914 0 .0798519
561767743 .1587753908200555 0 .0859421823231694 .1615748075229565 0 .09220203582
51427 .164389634177056 0 .0986383556215923 .167219487128519 0 .1052582992618726
 .170063914249849 0 .112069360579106 .172922390366179 0 .119079389146331 .175794
31122202 0 .1262966106281458 .178678987599099 0 .133729648817907 .18157563880074
9 0 .1413875491023316 .1844833852456325 0 .1492798032007468 .1874012420378645 0
 .157416376644732 .1903281090818065 0 .1658077371984915 .193262763830769 0 .1744
648860660305 .196203850836 0 .183399391030147 .199149871921946 0 .19262342251555
35 .202099174001433 0 .20214979158755 .205049938665159 0 .2119919921958325 .2080
001668810285 0 .2221642453526165 .210947666606663 0 .2326815477661815 .213890035
97273 0 .243559723986151 .2168246468013755 0 .25481548280591 .2197486263341275 0
 .266466478587441 .222658836645824 0 .2785313772915515 .225551853268266 0 .29102
9928340384 .2284239413405525 0 .303983043003029 .231271028555565 0 .317412878911
619 .2340886775572525 0 .3313429325555365 .23687205374325 0 .345798139684188 .23
96158917354565 0 .3608049854285555 .2423144563224325 0 .376391623789464 .2449615
024671275 0 .392588009002932 .2475502277673735 0 .409426038598138 .2500732236927
78 0 .4269397110460645 .252522418067471 0 .445165297998145 .254889015481137 0 .4
64141534199645 .257163427212915 0 .483909825987861 .2593351975263645 0 .50451448
141757 .2613929169361685 0 .526002963859561 .263324137925088 0 .548426173142643
 .26511523516474 0 .571838753689793 .2667514362057765 0 .596299447628485 .268216
1071225665 0 .621871442037381 .2694929395662795 0 .648622932809361 .270556491040
597 0 .676627044597815 .2714091279382815 0 .695724806799314 .271749765240991 0 .
7054942024 .2719240171 0 127 62 112 4 1 1 1 1 1 1 1 1 1 1 1 1 1 1 1 1 1 1 1 1 1
 1 1 1 1 1 1 1 1 1 1 1 1 1 1 1 1 1 1 1 1 1 1 1 1 1 1 1 1 1 1 1 1 1 1 1 1 1 1 1 4
 128 62 113 0 .00802198198734566 .01473867006215666 .02157855292631905 .02854638
96487572 .03564712771608775 .042885912913929 .0502680999089556 .0577992632578889
 .0654852092103082 .073331988354468 .0813459086596599 .0895335498730987 .0979017
779704432 .1064577616780004 .1152089888597912 .1241632849533044 .133328831736997
4 .142714188313917 .1523283126029725 .1621805845745555 .172280831591238 .1826393
545701515 .1932669568205125 .2041749744134355 .2153753091586025 .226880463109578
 .2387035768000085 .250858469444605 .263359682727226 .276222527166088 .289463132
7953375 .303098503439992 .3171465752117035 .331626280163559 .3465576144853595 .3
619617119877195 .377860925208562 .394278911622066 .411240727701088 .428772931670
7885 .4469036943958885 .465662920818235 .48508238135953 .505195855644432 .526039
28993969 .547650968973249 .570071702901851 .593345033858531 .617517461499568 .64
2638691129378 .668761906632713 .695944070941937 .724246257509821 .75373401674220
5 .784477780503087 .816553311982316 .850042202277966 .885032424982881 .921618951
987711 .959904440240213 1 74 20 103 1 0 0 10 0 0 0 0 0 0 0 0 0 0 0 0 0 0 0 0 0 0
 0 74 20 6 1 0 0 2 0 0 0 0 0 0 0 0 0 0 0 0 0 0 0 0 0 0 0 80 2 5 114 115 9000 0 0
 0 0 3 5 0 0 0 TFFFFFFFFFFFFF9 1 79 18 115 MULTI_BODY_ID_20011 0 
